<!DOCTYPE svg PUBLIC "-//W3C//DTD SVG 20010904//EN" "http://www.w3.org/TR/2001/REC-SVG-20010904/DTD/svg10.dtd">
<svg version="1.0" xmlns="http://www.w3.org/2000/svg" width="1600px" height="1600px" viewBox="0 0 16000 16000" preserveAspectRatio="xMidYMid meet">
<g id="layer101" fill="#b8a730" stroke="none">
 <path d="M7280 15994 c-487 -33 -1077 -146 -1630 -313 -758 -228 -1468 -564 -2129 -1008 -447 -301 -814 -604 -1212 -1002 -629 -630 -1084 -1261 -1483 -2058 -136 -272 -179 -367 -276 -608 -220 -552 -434 -1356 -499 -1875 -46 -375 -46 -368 -46 -1140 0 -757 1 -785 41 -1095 78 -609 248 -1262 489 -1871 136 -343 366 -811 565 -1149 132 -223 408 -620 599 -860 429 -539 1066 -1151 1591 -1527 542 -388 1110 -702 1700 -940 427 -172 1014 -348 1395 -418 66 -12 152 -28 192 -36 118 -23 351 -56 543 -76 178 -19 1597 -19 1760 0 435 50 775 111 1120 201 85 22 166 43 180 47 71 18 421 129 530 168 971 344 1875 884 2667 1593 155 139 489 475 629 633 368 416 712 893 965 1337 11 18 29 50 40 70 289 507 542 1115 709 1698 123 431 187 756 256 1290 26 200 32 1452 9 1759 -55 741 -277 1617 -596 2352 -162 373 -516 1039 -629 1184 -26 33 -27 38 -19 90 15 86 15 589 0 715 -86 748 -393 1404 -901 1928 -424 438 -952 748 -1520 892 l-99 25 -728 0 -728 0 -95 -24 c-140 -36 -320 -97 -455 -156 -66 -29 -124 -52 -130 -53 -5 0 -89 19 -185 41 -209 49 -374 82 -570 116 -391 67 -566 76 -1359 74 -355 -1 -666 -3 -691 -4z"/>
 </g>
<g id="layer102" fill="#be9041" stroke="none">
 <path d="M10665 15975 c-139 -36 -319 -98 -450 -155 -66 -29 -125 -53 -132 -53 -7 0 -10 -4 -8 -7 3 -4 -32 -27 -78 -50 -180 -92 -350 -203 -539 -350 -104 -82 -348 -318 -442 -430 -443 -523 -705 -1149 -767 -1833 -16 -181 -6 -564 20 -737 53 -356 156 -688 310 -996 l68 -135 -266 -204 c-842 -644 -1818 -1405 -1895 -1478 l-51 -47 70 -66 c77 -73 700 -635 2355 -2123 1514 -1362 1470 -1321 1484 -1388 9 -39 -9 -109 -30 -117 -49 -19 -167 14 -269 75 -39 24 -644 407 -1345 852 -701 446 -1599 1016 -1995 1267 -396 252 -891 566 -1100 699 -299 191 -385 241 -405 237 -31 -6 -1587 -531 -1857 -626 -108 -39 -221 -85 -251 -103 -110 -66 -192 -167 -213 -262 -17 -75 7 -142 75 -210 84 -85 193 -138 636 -310 124 -48 349 -136 500 -195 151 -60 610 -239 1020 -400 1125 -441 2223 -872 2720 -1067 245 -96 787 -309 1205 -473 2439 -955 2341 -918 2470 -941 192 -33 329 29 366 165 15 56 3 128 -136 826 -421 2122 -762 3842 -805 4065 -17 88 -33 172 -36 186 l-5 25 73 -12 c232 -40 658 -53 878 -26 390 47 729 144 1060 303 918 441 1577 1282 1780 2271 17 79 33 171 36 206 5 43 10 59 16 50 6 -9 7 -6 3 9 -3 13 1 101 10 195 24 248 10 503 -41 788 -151 839 -623 1580 -1326 2083 -310 221 -693 400 -1058 492 l-99 25 -733 -1 -733 0 -90 -24z"/>
 <path d="M15993 7375 c0 -22 2 -30 4 -17 2 12 2 30 0 40 -3 9 -5 -1 -4 -23z"/>
 <path d="M8588 3 c12 -2 30 -2 40 0 9 3 -1 5 -23 4 -22 0 -30 -2 -17 -4z"/>
 </g>
<g id="layer103" fill="#fec057" stroke="none">
 <path d="M10665 15975 c-187 -49 -502 -165 -575 -213 -14 -9 -59 -34 -100 -55 -178 -93 -347 -203 -532 -347 -104 -82 -348 -318 -442 -430 -443 -523 -705 -1149 -767 -1833 -16 -181 -6 -564 20 -737 53 -356 156 -688 310 -996 l68 -135 -266 -204 c-842 -644 -1818 -1405 -1895 -1478 l-51 -47 70 -66 c77 -73 700 -635 2355 -2123 1514 -1362 1470 -1321 1484 -1388 9 -39 -9 -109 -30 -117 -49 -19 -167 14 -269 75 -39 24 -644 407 -1345 852 -701 446 -1599 1016 -1995 1267 -396 252 -891 566 -1100 699 -299 191 -385 241 -405 237 -31 -6 -1587 -531 -1857 -626 -108 -39 -221 -85 -251 -103 -110 -66 -192 -167 -213 -262 -17 -75 7 -142 75 -210 84 -85 193 -138 636 -310 124 -48 349 -136 500 -195 151 -60 610 -239 1020 -400 1125 -441 2223 -872 2720 -1067 245 -96 787 -309 1205 -473 2439 -955 2341 -918 2470 -941 192 -33 329 29 366 165 15 56 3 128 -136 826 -421 2122 -762 3842 -805 4065 -17 88 -33 172 -36 186 l-5 25 73 -12 c232 -40 658 -53 878 -26 709 86 1314 358 1838 825 552 492 928 1196 1036 1937 33 223 48 441 41 578 -4 72 -10 132 -14 132 -3 0 -370 -363 -814 -807 -622 -622 -799 -793 -766 -744 140 213 200 470 169 717 -56 452 -380 805 -830 905 -98 21 -287 25 -388 8 l-64 -11 -147 146 -146 146 -263 0 -262 0 0 130 0 129 -132 3 -133 3 -3 133 -3 132 -129 0 -130 0 0 133 0 132 -131 128 -131 127 -266 0 -267 0 770 770 770 770 -345 -1 c-329 0 -349 -1 -435 -24z m565 -3230 l0 -130 -660 660 -660 660 0 130 0 130 660 -660 660 -660 0 -130z m1443 -693 c86 -47 131 -124 131 -227 0 -84 -14 -115 -81 -174 -86 -75 -75 -71 -178 -74 -116 -4 -217 80 -249 207 -19 78 -13 115 33 188 30 48 96 94 154 109 53 13 136 1 190 -29z"/>
 </g>
<g id="layer104" fill="#ffffff" stroke="none">
 <path d="M9778 14333 l-128 -127 0 -136 0 -135 805 -805 804 -805 -11 -45 c-6 -25 -12 -112 -12 -195 0 -125 4 -165 23 -239 53 -203 138 -353 281 -497 187 -188 389 -284 650 -309 300 -29 596 73 815 281 101 97 166 183 225 304 275 556 7 1231 -575 1450 -161 61 -378 82 -543 54 l-64 -11 -147 146 -146 146 -263 0 -262 0 0 130 0 129 -132 3 -133 3 -3 133 -3 132 -129 0 -130 0 0 133 0 132 -131 128 -131 127 -266 0 -265 0 -129 -127z m1452 -1588 l0 -130 -660 660 -660 660 0 130 0 130 660 -660 660 -660 0 -130z m1443 -693 c86 -47 131 -124 131 -227 0 -84 -14 -115 -81 -174 -86 -75 -75 -71 -178 -74 -116 -4 -217 80 -249 207 -19 78 -13 115 33 188 30 48 96 94 154 109 53 13 136 1 190 -29z"/>
 <path d="M8526 11137 c-66 -51 -339 -261 -607 -467 -679 -522 -1373 -1066 -1433 -1123 l-51 -47 70 -66 c77 -73 700 -635 2355 -2123 1514 -1362 1470 -1321 1484 -1388 9 -39 -9 -109 -30 -117 -49 -19 -167 14 -269 75 -39 24 -644 407 -1345 852 -701 446 -1599 1016 -1995 1267 -396 252 -891 566 -1100 699 -299 191 -385 241 -405 237 -31 -6 -1587 -531 -1857 -626 -108 -39 -221 -85 -251 -103 -110 -66 -192 -167 -213 -262 -17 -75 7 -142 75 -210 84 -85 193 -138 636 -310 124 -48 349 -136 500 -195 151 -60 610 -239 1020 -400 1125 -441 2223 -872 2720 -1067 245 -96 787 -309 1205 -473 2439 -955 2341 -918 2470 -941 192 -33 329 29 366 165 15 56 3 128 -136 826 -421 2122 -762 3842 -805 4065 -17 88 -33 172 -36 186 -5 24 -13 28 -107 49 -424 94 -847 283 -1200 538 -349 251 -669 602 -901 990 -21 34 -38 62 -39 61 -1 0 -56 -41 -121 -92z"/>
 </g>

</svg>